<svg width="18" height="28" viewBox="0 0 18 28" fill="none" xmlns="http://www.w3.org/2000/svg">
<g id="Flash">
<path id="Vector 1" d="M14.2727 2H11.7826L6.09091 12.5194H8.5C8.5 12.5194 8.05138 12.5 9 12.5C9.75889 12.5 11 12.5194 10 14L5 23L17 10.4155H12.2569C11.8775 10.4155 9.43478 10.2314 9.90909 9.17949L14.2727 2Z" fill="#91EBE0"/>
<g id="Layer 23">
<path id="Vector" d="M3.37503 27.125C3.22529 27.1315 3.07619 27.102 2.94021 27.0389C2.80424 26.9759 2.68535 26.8812 2.59353 26.7628C2.50171 26.6443 2.43962 26.5056 2.41248 26.3582C2.38533 26.2108 2.39392 26.059 2.43753 25.9156L5.8594 14.9375H1.50003C1.33733 14.9375 1.17744 14.8951 1.03608 14.8146C0.89472 14.734 0.776753 14.6181 0.693777 14.4781C0.611495 14.3356 0.568176 14.1739 0.568176 14.0094C0.568176 13.8448 0.611495 13.6831 0.693777 13.5406L7.25628 1.35312C7.33689 1.20969 7.45383 1.08999 7.59536 1.00606C7.73688 0.922137 7.898 0.876935 8.06253 0.875H14.625C14.7877 0.875028 14.9476 0.917397 15.089 0.99794C15.2303 1.07848 15.3483 1.19443 15.4313 1.33438C15.5136 1.47689 15.5569 1.63856 15.5569 1.80313C15.5569 1.96769 15.5136 2.12936 15.4313 2.27188L11.5313 9.3125H16.5C16.6767 9.313 16.8497 9.36343 16.999 9.45798C17.1483 9.55253 17.2678 9.68734 17.3438 9.84687C17.4214 10.0083 17.4512 10.1885 17.4296 10.3663C17.408 10.544 17.3359 10.7119 17.2219 10.85L4.0969 26.7875C4.00876 26.8933 3.89838 26.9784 3.77361 27.0368C3.64884 27.0951 3.51276 27.1252 3.37503 27.125ZM3.06565 13.0625H7.12503C7.27137 13.0636 7.41542 13.0989 7.54565 13.1657C7.67589 13.2324 7.78869 13.3287 7.87503 13.4469C7.96235 13.5633 8.02137 13.6985 8.04741 13.8417C8.07344 13.9849 8.06578 14.1322 8.02503 14.2719L5.66253 21.9312L14.5125 11.1875H9.93753C9.77483 11.1875 9.61494 11.1451 9.47358 11.0646C9.33222 10.984 9.21425 10.8681 9.13128 10.7281C9.04899 10.5856 9.00568 10.4239 9.00568 10.2594C9.00568 10.0948 9.04899 9.93314 9.13128 9.79063L13.0313 2.75H8.62503L3.06565 13.0625Z" fill="black"/>
</g>
</g>
</svg>
